<svg xmlns="http://www.w3.org/2000/svg" xmlns:xlink="http://www.w3.org/1999/xlink" width="43" height="44" version="1.1" viewBox="0 0 43 44"><title>Group 26</title><defs><polygon id="path-1" points="0 .032 42.435 .032 42.435 42.188 0 42.188"/></defs><g id="---Developers" fill="none" fill-rule="evenodd" stroke="none" stroke-width="1"><g id="Icons" transform="translate(-835.000000, -1324.000000)"><g id="Group-26" transform="translate(835.000000, 1324.000000)"><path id="Fill-1" fill="#A3ACBD" d="M37.4007,12.4629 L8.8727,40.9899 L8.6387,40.7569 C7.5247,39.6429 7.5247,37.8349 8.6387,36.7209 L33.1307,12.2289 C34.2457,11.1139 36.0517,11.1139 37.1667,12.2289 L37.4007,12.4629 Z"/><polygon id="Fill-3" fill="#FFF" points="8.903 9.633 7.828 8.558 11.176 5.209 12.251 6.284"/><polygon id="Fill-5" fill="#FFF" points="12.251 12.98 11.176 11.905 14.524 8.557 15.599 9.633"/><polygon id="Fill-7" fill="#FFF" points="15.599 16.328 14.524 15.252 17.872 11.905 18.947 12.98"/><path id="Fill-9" fill="#A3ACBD" d="M12.8519,23.583 L0.8399,11.572 C0.0919,10.822 0.0919,9.604 0.8399,8.855 L7.0099,2.685 C7.7349,1.959 9.0009,1.959 9.7269,2.685 L21.8629,14.821 L20.7889,15.896 L8.6519,3.761 C8.4999,3.608 8.2359,3.609 8.0849,3.76 L1.9149,9.93 C1.7589,10.086 1.7589,10.341 1.9149,10.497 L13.9269,22.508 L12.8519,23.583 Z"/><polygon id="Fill-11" fill="#FFF" points="28.991 29.72 27.916 28.645 31.263 25.297 32.338 26.372"/><polygon id="Fill-13" fill="#FFF" points="32.338 33.068 31.263 31.992 34.611 28.644 35.686 29.719"/><polygon id="Fill-15" fill="#FFF" points="35.686 36.416 34.611 35.34 37.959 31.992 39.034 33.068"/><path id="Fill-17" fill="#A3ACBD" d="M32.675,43.4068 L19.546,30.2788 L20.621,29.2018 L33.749,42.3308 C33.906,42.4888 34.16,42.4888 34.317,42.3308 L40.487,36.1608 C40.562,36.0858 40.604,35.9858 40.604,35.8778 C40.604,35.7708 40.562,35.6698 40.487,35.5948 L27.358,22.4658 L28.433,21.3908 L41.561,34.5198 C41.924,34.8818 42.124,35.3638 42.124,35.8778 C42.124,36.3908 41.924,36.8728 41.561,37.2368 L35.391,43.4068 C35.017,43.7808 34.525,43.9678 34.033,43.9678 C33.541,43.9678 33.05,43.7808 32.675,43.4068 Z"/><polygon id="Fill-19" fill="#A3ACBE" points="36.843 12.98 30.454 6.591 31.53 5.516 37.918 11.905"/><polygon id="Fill-21" fill="#A3ACBE" points="8.945 40.879 2.556 34.491 3.631 33.415 10.02 39.804"/><g id="Group-25" transform="translate(0.000000, 0.967800)"><mask id="mask-2" fill="#fff"><use xlink:href="#path-1"/></mask><path id="Fill-23" fill="#FFF" d="M3.4749,33.6797 L1.6829,40.5247 L8.7999,38.9817 L40.7689,7.0117 L35.4559,1.6987 L3.4749,33.6797 Z M1.0939,42.1877 C0.8199,42.1877 0.5249,42.0697 0.3079,41.8437 C0.0179,41.5417 -0.0761,41.1097 0.0639,40.7137 L2.1079,32.8957 L34.6299,0.3727 C35.0869,-0.0823 35.8279,-0.0813 36.2819,0.3727 L42.0939,6.1847 C42.5489,6.6397 42.5489,7.3817 42.0939,7.8367 L41.5569,7.2987 L42.0939,7.8367 L9.5589,40.3717 L1.3599,42.1477 C1.2759,42.1737 1.1859,42.1877 1.0939,42.1877 L1.0939,42.1877 Z" mask="url(#mask-2)"/></g></g></g></g></svg>