<svg xmlns="http://www.w3.org/2000/svg" xmlns:xlink="http://www.w3.org/1999/xlink" width="34" height="31" version="1.1" viewBox="0 0 34 31"><title>91780E68-707B-41F5-98F8-1D3333572650</title><g id="---Developers" fill="none" fill-rule="evenodd" stroke="none" stroke-width="1"><g id="Documentation---Wallets" transform="translate(-650.000000, -730.000000)"><g id="Wallet-Architecture" transform="translate(651.000000, 731.000000)"><polyline id="Path" stroke="#8ECFBA" stroke-linecap="round" stroke-linejoin="round" stroke-width="2" points="10.333 21.667 10.333 24.5 21.667 24.5 21.667 8.917 4.667 8.917 4.667 24.5"/><path id="Path" fill="#8DB7DC" fill-rule="nonzero" d="M29,4 C29,2 28,2 28,1.5 L30,1.5 L31.5,4 L31.5,21.5 L29,21 C28.8333,20.6667 29,6 29,4 Z"/><polyline id="Path" stroke="#8ECFBA" stroke-linecap="round" stroke-linejoin="round" stroke-width="2" points="13.875 8.917 13.875 16 10.333 16"/><path id="Shape" stroke="#402B91" stroke-linecap="round" stroke-linejoin="round" stroke-width="2" d="M31.5834,24.5 L31.5834,4.6667 C31.5834,3.5395 31.1356,2.4585 30.3386,1.6615 C29.5415,0.86443 28.4605,0.41667 27.3334,0.41667 L25.9167,0.41667 L25.9167,20.25 L27.3334,20.25 C28.4605,20.25 29.5415,20.6978 30.3386,21.4948 C31.1356,22.2918 31.5834,23.3728 31.5834,24.5 Z M31.5834,24.5 C31.5834,25.6272 31.1356,26.7082 30.3386,27.5052 C29.5415,28.3022 28.4605,28.75 27.3334,28.75 L0.41669,28.75 L0.41669,4.6667 L22.375,4.6667"/></g></g></g></svg>