<svg xmlns="http://www.w3.org/2000/svg" xmlns:xlink="http://www.w3.org/1999/xlink" width="34" height="34" version="1.1" viewBox="0 0 34 34"><title>A0035D1C-E8AD-4775-A70D-23DF097A32BB</title><g id="---Developers" fill="none" fill-rule="evenodd" stroke="none" stroke-width="1"><g id="Documentation---Wallets" transform="translate(-650.000000, -1291.000000)"><g id="Compliance" transform="translate(651.000000, 1292.000000)"><path id="Path" fill="#92B5D8" fill-rule="nonzero" d="M9,26 C15.5,26 16.5,26 23,26 C29.5,26 31,31 31,31 L1,31 C1,31 2.5,26 9,26 Z"/><polyline id="Path" stroke="#402B91" stroke-linecap="round" stroke-linejoin="round" stroke-width="2" points="6.083 31.583 .417 31.583 .417 22.375 4.667 22.375"/><polyline id="Path" stroke="#402B91" stroke-linecap="round" stroke-linejoin="round" stroke-width="2" points="25.917 31.583 31.583 31.583 31.583 22.375 27.333 22.375"/><line id="Path" x1="16" x2="16" y1="7.5" y2=".417" stroke="#074957" stroke-linecap="round" stroke-linejoin="round" stroke-width="2"/><polyline id="Path" fill="#94D1BE" fill-rule="nonzero" points="16 4.667 20.25 4.667 20.25 1.833 16 1.833"/><polyline id="Path" stroke="#074957" stroke-linecap="round" stroke-linejoin="round" stroke-width="2" points="16 4.667 20.25 4.667 20.25 1.833 16 1.833"/><polyline id="Path" fill="#FFF" fill-rule="nonzero" points="18.125 31.583 18.125 25.917 13.875 25.917 13.875 31.583"/><polyline id="Path" stroke="#402B91" stroke-linecap="round" stroke-linejoin="round" stroke-width="2" points="18.125 31.583 18.125 25.917 13.875 25.917 13.875 31.583"/><line id="Path" x1="13.875" x2="18.125" y1="22.375" y2="22.375" stroke="#736BB6" stroke-linecap="round" stroke-linejoin="round" stroke-width="2"/><line id="Path" x1="8.917" x2="8.917" y1="31.583" y2="18.833" stroke="#736BB6" stroke-linecap="round" stroke-linejoin="round" stroke-width="2"/><line id="Path" x1="23.083" x2="23.083" y1="31.583" y2="18.833" stroke="#736BB6" stroke-linecap="round" stroke-linejoin="round" stroke-width="2"/><line id="Path" x1="4.667" x2="27.333" y1="14.583" y2="14.583" stroke="#402B91" stroke-linecap="round" stroke-linejoin="round" stroke-width="2"/><polygon id="Path" stroke="#402B91" stroke-linecap="round" stroke-linejoin="round" stroke-width="2" points="27.333 14.583 27.333 31.583 4.667 31.583 4.667 14.583 16 7.5"/><line id="Path" x1="4.667" x2="27.333" y1="18.833" y2="18.833" stroke="#402B91" stroke-linecap="round" stroke-linejoin="round" stroke-width="2"/></g></g></g></svg>