<svg xmlns="http://www.w3.org/2000/svg" xmlns:xlink="http://www.w3.org/1999/xlink" width="27" height="39" version="1.1" viewBox="0 0 27 39"><title>Local Mobile Wallet</title><g id="---Developers" fill="none" fill-rule="evenodd" stroke="none" stroke-width="1"><g id="Icons" transform="translate(-956.000000, -2103.000000)"><g id="Local-Mobile-Wallet" transform="translate(957.000000, 2104.000000)"><path id="Path" fill="#FFF" d="M3,34.8372 L21.1304,34.8372 C22.7873,34.8372 24.1304,33.4941 24.1304,31.8372 L0,31.8372 C0,33.4941 1.3431,34.8372 3,34.8372 Z"/><line id="Path" x1="0" x2="24.13" y1="5.372" y2="5.372" stroke="#A3ACB9" stroke-width="2"/><line id="Path" x1="9.672" x2="14.458" y1="2.66" y2="2.66" stroke="#A3ACB9" stroke-linecap="round" stroke-width="2"/><line id="Path" x1="0" x2="24.13" y1="31.772" y2="31.772" stroke="#A3ACB9" stroke-width="2"/><path id="Path" stroke="#A3ACB9" stroke-width="2" d="M21.1304,0 L3,0 C1.3431,0 0,1.34315 0,3 L0,34 C0,35.6569 1.3431,37 3,37 L21.1304,37 C22.7873,37 24.1304,35.6569 24.1304,34 L24.1304,3 C24.1304,1.34315 22.7873,0 21.1304,0 Z"/><path id="Path" stroke="#FFF" stroke-linecap="round" stroke-linejoin="round" stroke-width="2" d="M19.4517,18.0244 L19.4517,13.5099 L5.9072,13.5099 C5.0761,13.5099 4.4022,12.8361 4.4022,12.0049 L4.4022,23.292 C4.4022,24.5389 5.4128,25.5495 6.6596,25.5495 L19.4517,25.5495 L19.4517,21.0346 L19.4517,18.0244 Z"/><path id="Path" stroke="#FFF" stroke-linecap="round" stroke-linejoin="round" stroke-width="2" d="M16.4418,11.6287 L16.4418,10.5 L5.9072,10.5 C5.0761,10.5 4.4022,11.1738 4.4022,12.0049 C4.4022,12.8361 5.0761,13.5099 5.9072,13.5099"/></g></g></g></svg>