<svg xmlns="http://www.w3.org/2000/svg" xmlns:xlink="http://www.w3.org/1999/xlink" width="34" height="33" version="1.1" viewBox="0 0 34 33"><title>8B2BA435-397A-40F7-9F97-EED2A8BC3542</title><g id="---Developers" fill="none" fill-rule="evenodd" stroke="none" stroke-width="1"><g id="Documentation---Wallets" transform="translate(-650.000000, -1011.000000)"><g id="Login-&amp;-Authentication" transform="translate(651.000000, 1011.000000)"><path id="Path" fill="#8DB7DC" fill-rule="nonzero" d="M5,28 C7.5,28 23,28 26.5,28 C30,28 31,31 31,31 L1,31 C1,31 2.5,28 5,28 Z"/><polygon id="Path" fill="#94D1BE" fill-rule="nonzero" stroke="#074957" stroke-linecap="round" stroke-linejoin="round" stroke-width="2" points="14.583 16 6.083 16 6.083 24.5 14.583 24.5"/><line id="Path" x1="18.833" x2="25.917" y1="17.417" y2="17.417" stroke="#736DB1" stroke-linecap="round" stroke-linejoin="round" stroke-width="2"/><line id="Path" x1="18.833" x2="25.917" y1="23.083" y2="23.083" stroke="#736DB1" stroke-linecap="round" stroke-linejoin="round" stroke-width="2"/><polyline id="Path" stroke="#402B91" stroke-linecap="round" stroke-linejoin="round" stroke-width="2" points="18.833 7.5 31.583 7.5 31.583 31.583 .417 31.583 .417 7.5 13.167 7.5"/><path id="Path" fill="#736DB1" fill-rule="nonzero" d="M18.8333,10.3333 L13.1667,10.3333 L13.1667,3.25001 C13.1667,1.6853 14.4353,0.41667 16,0.41667 C17.5647,0.41667 18.8333,1.6853 18.8333,3.25001 L18.8333,10.3333 Z"/></g></g></g></svg>