<svg xmlns="http://www.w3.org/2000/svg" xmlns:xlink="http://www.w3.org/1999/xlink" width="800" height="895" version="1.1" viewBox="0 0 800 895"><title>merkle-accumulators</title><desc>Created with Sketch.</desc><g id="merkle-accumulators" fill="none" fill-rule="evenodd" stroke="none" stroke-width="1"><rect width="800" height="895" x="0" y="0" fill="#FFF"/><rect id="Rectangle" width="412" height="225" x="497" y="683" fill="#F5F6FA"/><text id="Merkle-Accumulators" fill="#15112C" font-family="Helvetica" font-size="40" font-weight="normal"><tspan x="200" y="61">Merkle Accumulators</tspan></text><g id="Group" transform="translate(305.000000, 119.000000)"><path id="Line-4" stroke="#000" stroke-linecap="square" stroke-width="4" d="M70,25 L20,86"/><path id="Line" stroke="#000" stroke-linecap="square" stroke-width="4" d="M20,86 L20,145"/><path id="Line-2" stroke="#000" stroke-linecap="square" stroke-width="4" d="M70,25 L120,85"/><circle id="Oval" cx="20" cy="85" r="20" fill="#221B62"/><circle id="Oval" cx="20" cy="145" r="20" fill="#5645F5"/><rect id="Rectangle" width="40" height="40" x="100" y="65" fill="#B3BCC3"/><polygon id="Rectangle" fill="#0F7B63" points="70 0 95 25 70 50 45 25"/></g><g id="Group-2" transform="translate(59.000000, 378.000000)"><path id="Line-4" stroke="#000" stroke-linecap="square" stroke-width="4" d="M241,86 L200,145"/><path id="Line" stroke="#000" stroke-linecap="square" stroke-width="4" d="M201,146 L201,205"/><path id="Line-2" stroke="#000" stroke-linecap="square" stroke-width="4" d="M241,86 L290,146"/><path id="Line-2" stroke="#000" stroke-linecap="square" stroke-width="4" d="M155,25 L242,86"/><circle id="Oval" cx="200" cy="146" r="20" fill="#221B62"/><circle id="Oval" cx="200" cy="205" r="20" fill="#5645F5"/><rect id="Rectangle" width="40" height="40" x="270" y="125" fill="#B3BCC3"/><path id="Line" stroke="#000" stroke-linecap="square" stroke-width="4" d="M20,146 L20,205"/><path id="Line" stroke="#000" stroke-linecap="square" stroke-width="4" d="M120,146 L120,205"/><path id="Line-4" stroke="#000" stroke-linecap="square" stroke-width="4" d="M70,85 L20,145"/><path id="Line-4" stroke="#000" stroke-linecap="square" stroke-width="4" d="M155,25 L69,86"/><path id="Line-2" stroke="#000" stroke-linecap="square" stroke-width="4" d="M70,86 L120,146"/><circle id="Oval" cx="120" cy="145" r="20" fill="#221B62"/><circle id="Oval" cx="120" cy="205" r="20" fill="#5645F5"/><circle id="Oval" cx="20" cy="145" r="20" fill="#221B62"/><circle id="Oval" cx="20" cy="205" r="20" fill="#5645F5"/><polygon id="Rectangle" fill="#0F7B63" points="70 60 95 85 70 110 45 85"/><polygon id="Rectangle" fill="#0F7B63" points="241 57 266 82 241 107 216 82"/><polygon id="Rectangle" fill="#0F7B63" points="155 0 180 25 155 50 130 25"/></g><g id="Group-2" transform="translate(436.000000, 377.000000)"><path id="Line-4" stroke="#000" stroke-linecap="square" stroke-width="4" d="M241,87 L200,146"/><path id="Line" stroke="#000" stroke-linecap="square" stroke-width="4" d="M201,147 L201,206"/><path id="Line-2" stroke="#000" stroke-linecap="square" stroke-width="4" d="M241,87 L290,147"/><path id="Line-2" stroke="#000" stroke-linecap="square" stroke-width="4" d="M154,26 L242,87"/><circle id="Oval" cx="200" cy="147" r="20" fill="#221B62"/><circle id="Oval" cx="200" cy="206" r="20" fill="#5645F5"/><path id="Line" stroke="#000" stroke-linecap="square" stroke-width="4" d="M291,147 L291,206"/><circle id="Oval" cx="290" cy="147" r="20" fill="#221B62"/><circle id="Oval" cx="290" cy="206" r="20" fill="#5645F5"/><path id="Line" stroke="#000" stroke-linecap="square" stroke-width="4" d="M20,147 L20,206"/><path id="Line" stroke="#000" stroke-linecap="square" stroke-width="4" d="M120,147 L120,206"/><path id="Line-4" stroke="#000" stroke-linecap="square" stroke-width="4" d="M70,86 L20,146"/><path id="Line-4" stroke="#000" stroke-linecap="square" stroke-width="4" d="M154,25 L70,87"/><path id="Line-2" stroke="#000" stroke-linecap="square" stroke-width="4" d="M70,87 L120,147"/><circle id="Oval" cx="120" cy="146" r="20" fill="#221B62"/><circle id="Oval" cx="120" cy="206" r="20" fill="#5645F5"/><circle id="Oval" cx="20" cy="146" r="20" fill="#221B62"/><circle id="Oval" cx="20" cy="206" r="20" fill="#5645F5"/><polygon id="Rectangle" fill="#0F7B63" points="70 61 95 86 70 111 45 86"/><polygon id="Rectangle" fill="#0F7B63" points="154 0 179 25 154 50 129 25"/><polygon id="Rectangle" fill="#0F7B63" points="241 62 266 87 241 112 216 87"/></g><g id="Group" transform="translate(566.000000, 118.000000)"><path id="Line" stroke="#000" stroke-linecap="square" stroke-width="4" d="M20,87 L20,146"/><path id="Line" stroke="#000" stroke-linecap="square" stroke-width="4" d="M120,87 L120,146"/><path id="Line-4" stroke="#000" stroke-linecap="square" stroke-width="4" d="M70,26 L20,86"/><path id="Line-2" stroke="#000" stroke-linecap="square" stroke-width="4" d="M70,25 L120,87"/><polygon id="Rectangle" fill="#0F7B63" points="70 0 95 25 70 50 45 25"/><circle id="Oval" cx="120" cy="86" r="20" fill="#221B62"/><circle id="Oval" cx="120" cy="146" r="20" fill="#5645F5"/><circle id="Oval" cx="20" cy="86" r="20" fill="#221B62"/><circle id="Oval" cx="20" cy="146" r="20" fill="#5645F5"/></g><rect id="Rectangle" width="40" height="40" x="101" y="184" fill="#B3BCC3"/><text id="0" fill="#15112C" font-family="Helvetica" font-size="25" font-weight="normal"><tspan x="114.048" y="320">0</tspan></text><text id="3" fill="#15112C" font-family="Helvetica" font-size="25" font-weight="normal"><tspan x="214.048" y="640">3</tspan></text><text id="Internal-Node-Leaf-N" fill="#15112C" font-family="Helvetica" font-size="25" font-weight="normal" line-spacing="40"><tspan x="568" y="736">Internal Node</tspan> <tspan x="568" y="776">Leaf Node</tspan> <tspan x="568" y="816">Object</tspan> <tspan x="568" y="856">Placeholder Node</tspan></text><text id="a" fill="#FFF" font-family="Helvetica" font-size="25" font-weight="normal"><tspan x="207" y="408">a</tspan></text><text id="j" fill="#FFF" font-family="Helvetica" font-size="25" font-weight="normal"><tspan x="346" y="530">j</tspan></text><text id="b" fill="#FFF" font-family="Helvetica" font-size="25" font-weight="normal"><tspan x="122" y="469">b</tspan></text><text id="g" fill="#FFF" font-family="Helvetica" font-size="25" font-weight="normal"><tspan x="293" y="466">g</tspan></text><text id="c" fill="#FFF" font-family="Helvetica" font-size="25" font-weight="normal"><tspan x="72" y="529">c</tspan></text><text id="d" fill="#FFF" font-family="Helvetica" font-size="25" font-weight="normal"><tspan x="72" y="589">d</tspan></text><text id="e" fill="#FFF" font-family="Helvetica" font-size="25" font-weight="normal"><tspan x="172" y="529">e</tspan></text><text id="f" fill="#FFF" font-family="Helvetica" font-size="25" font-weight="normal"><tspan x="175" y="591">f</tspan></text><text id="h" fill="#FFF" font-family="Helvetica" font-size="25" font-weight="normal"><tspan x="253" y="531">h</tspan></text><text id="i" fill="#FFF" font-family="Helvetica" font-size="25" font-weight="normal"><tspan x="256" y="590">i</tspan></text><rect id="Rectangle" width="20" height="20" x="532" y="843" fill="#B3BCC3"/><circle id="Oval" cx="542" cy="813" r="10" fill="#5645F5"/><polygon id="Rectangle" fill="#0F7B63" points="542 723 552 733 542 743 532 733"/><circle id="Oval" cx="542" cy="773" r="10" fill="#221B62"/><text id="4" fill="#15112C" font-family="Helvetica" font-size="25" font-weight="normal"><tspan x="584.048" y="640">4</tspan></text><text id="1" fill="#15112C" font-family="Helvetica" font-size="25" font-weight="normal"><tspan x="370.5" y="320">1</tspan></text><text id="2" fill="#15112C" font-family="Helvetica" font-size="25" font-weight="normal"><tspan x="622.048" y="320">2</tspan></text></g></svg>