<svg xmlns="http://www.w3.org/2000/svg" xmlns:xlink="http://www.w3.org/1999/xlink" width="102" height="66" version="1.1" viewBox="0 0 102 66"><title>3AA97092-BB3C-42F9-AFFD-04A6CD04F133</title><g id="---Developers" fill="none" fill-rule="evenodd" stroke="none" stroke-width="1"><g id="Documentation---Wallet-/-App-Overview" stroke-width="4.5" transform="translate(-950.000000, -417.000000)"><g id="Group-7" transform="translate(953.000000, 419.227723)"><path id="Stroke-1" stroke="#92B5D8" d="M29.5,0.772277228 L29.5,0.772277228 C45.7927049,0.772277228 59,13.9795723 59,30.2722772 C59,46.5649821 45.7927049,59.7722772 29.5,59.7722772 L29.5,59.7722772 C13.2082623,59.7722772 0,46.5649821 0,30.2722772 C0,13.9795723 13.2082623,0.772277228 29.5,0.772277228 Z"/><path id="Stroke-3" stroke="#FFF" d="M66.5,0.772277228 L66.5,0.772277228 C82.7927049,0.772277228 96,13.9795723 96,30.2722772 C96,46.5649821 82.7927049,59.7722772 66.5,59.7722772 C50.2072951,59.7722772 37,46.5649821 37,30.2722772 C37,13.9795723 50.2072951,0.772277228 66.5,0.772277228 Z"/><path id="Stroke-5" stroke="#92B5D8" d="M59,30.7722772 C59,46.7888346 46.0156066,59.7722772 30,59.7722772"/></g></g></g></svg>