<svg xmlns="http://www.w3.org/2000/svg" xmlns:xlink="http://www.w3.org/1999/xlink" width="32" height="34" version="1.1" viewBox="0 0 32 34"><title>PubSub</title><g id="---Developers" fill="none" fill-rule="evenodd" stroke="none" stroke-width="1"><g id="Icons" transform="translate(-433.000000, -2219.000000)"><g id="PubSub" transform="translate(434.000000, 2220.000000)"><path id="Path" fill="#FFF" fill-rule="nonzero" d="M26.375,28.8571 C28.475,28.8571 28.475,28 29,28 L29,29.7143 L26.375,31 L8,31 L8.525,28.8571 C8.875,28.7143 24.275,28.8571 26.375,28.8571 Z"/><path id="Path" stroke="#A3ACB9" stroke-linecap="round" stroke-linejoin="round" stroke-width="2" d="M7.9167,26.625 L7.9167,28.0417 C7.9167,31.2292 4.375,31.5833 4.375,31.5833 C4.375,31.5833 25.382,31.5833 25.625,31.5833 C27.5807,31.5833 29.1667,29.9974 29.1667,28.0417 L29.1667,26.625 L7.9167,26.625 Z"/><path id="Path" stroke="#A3ACB9" stroke-linecap="round" stroke-linejoin="round" stroke-width="2" d="M24.9167,23.0833 L24.9167,0.41666 L0.8333,0.41666 L0.8333,28.0417 C0.8333,29.9974 2.4193,31.5833 4.375,31.5833"/><line id="Path" x1="6.5" x2="19.25" y1="7.5" y2="7.5" stroke="#FFF" stroke-linecap="round" stroke-linejoin="round" stroke-width="2"/><line id="Path" x1="6.5" x2="19.25" y1="13.167" y2="13.167" stroke="#FFF" stroke-linecap="round" stroke-linejoin="round" stroke-width="2"/><line id="Path" x1="6.5" x2="19.25" y1="18.833" y2="18.833" stroke="#FFF" stroke-linecap="round" stroke-linejoin="round" stroke-width="2"/></g></g></g></svg>