<svg xmlns="http://www.w3.org/2000/svg" xmlns:xlink="http://www.w3.org/1999/xlink" width="32" height="30" version="1.1" viewBox="0 0 32 30"><title>C978A216-79C1-4B66-826F-70B002471F56</title><g id="---Developers" fill="none" fill-rule="evenodd" stroke="none" stroke-width="1"><g id="Documentation---Wallets" transform="translate(-390.000000, -1017.000000)"><g id="Reference-Wallet-Setup" transform="translate(391.000000, 1018.000000)"><rect id="Rectangle" width="29" height="7" x="1" y="5" fill="#92B5D8" fill-rule="nonzero"/><line id="Path" x1=".333" x2="29.667" y1="5.333" y2="5.333" stroke="#402B91" stroke-linecap="round" stroke-linejoin="round" stroke-width="2"/><path id="Path" stroke="#402B91" stroke-linecap="round" stroke-linejoin="round" stroke-width="2" d="M0.3333,12 L29.6667,12 L29.6667,2.6667 C29.6667,1.2 28.4667,0 27,0 L20.3333,0 L3,0 C1.5333,0 0.3333,1.2 0.3333,2.6667 L0.3333,20 C0.3333,21.4667 1.5333,22.6667 3,22.6667 L11,22.6667"/><line id="Path" x1="5" x2="11" y1="17.333" y2="17.333" stroke="#736DB1" stroke-linecap="round" stroke-linejoin="round" stroke-width="2"/><polygon id="Path" fill="#9CD5C2" fill-rule="nonzero" stroke="#8ECFBA" stroke-linecap="round" stroke-linejoin="round" points="19.667 27.333 16.333 28 17 24.667 25 16.667 27.667 19.333"/></g></g></g></svg>