<svg xmlns="http://www.w3.org/2000/svg" xmlns:xlink="http://www.w3.org/1999/xlink" width="30" height="30" version="1.1" viewBox="0 0 30 30"><title>Service APIs</title><g id="---Developers" fill="none" fill-rule="evenodd" stroke="none" stroke-width="1"><g id="Icons" transform="translate(-695.000000, -2215.000000)"><g id="Service-APIs" transform="translate(696.000000, 2216.000000)"><line id="Path" x1="0" x2="3.286" y1="28" y2="24.714" stroke="#A3ACB9" stroke-linecap="round" stroke-linejoin="round" stroke-width="2"/><line id="Path" x1="11.333" x2="8.667" y1="12.667" y2="15.333" stroke="#A3ACB9" stroke-linecap="round" stroke-linejoin="round" stroke-width="2"/><line id="Path" x1="15.333" x2="12.667" y1="16.667" y2="19.333" stroke="#A3ACB9" stroke-linecap="round" stroke-linejoin="round" stroke-width="2"/><path id="Path" fill="#FFF" fill-rule="nonzero" d="M7.5,22.5 C2.286,21.5 1.345,15.8923 1.3539364,19.994 C1.3578,21.757 2.0599,23.4467 3.3066,24.6934 C4.5532,25.9401 6.243,26.6421 8.006,26.6460163 C9.7691,26.6499 11.4619,25.9552 12.714,24.714 L15.3806,22.0473 C15.3806,22.0473 12.714,23.5 7.5,22.5 Z"/><path id="Path" stroke="#A3ACB9" stroke-linecap="round" stroke-linejoin="round" stroke-width="2" d="M5.9527,12.6193 L3.286,15.286 C2.0448,16.5381 1.3501,18.2309 1.35398367,19.9939 C1.3579,21.757 2.0599,23.4467 3.3066,24.6934 C4.5533,25.9401 6.243,26.6421 8.006,26.6460163 C9.7691,26.6499 11.4619,25.9552 12.714,24.714 L15.3807,22.0473 L5.9527,12.6193 Z"/><line id="Path" x1="28" x2="24.714" y1="0" y2="3.286" stroke="#A3ACB9" stroke-linecap="round" stroke-linejoin="round" stroke-width="2"/><path id="Path" fill-rule="nonzero" stroke="#A3ACB9" stroke-linecap="round" stroke-linejoin="round" stroke-width="2" d="M22.0473,15.3807 L24.714,12.714 C25.9552,11.4619 26.6499,9.7691 26.6460163,8.006 C26.6421,6.243 25.9401,4.5533 24.6934,3.3066 C23.4467,2.0599 21.757,1.3579 19.9939,1.35398367 C18.2309,1.3501 16.5381,2.0448 15.286,3.286 L12.6193,5.9527 L22.0473,15.3807 Z"/></g></g></g></svg>