<svg xmlns="http://www.w3.org/2000/svg" xmlns:xlink="http://www.w3.org/1999/xlink" width="31" height="32" version="1.1" viewBox="0 0 31 32"><title>Introduction to Wallets</title><g id="---Developers" fill="none" fill-rule="evenodd" stroke="none" stroke-width="1"><g id="Icons" transform="translate(-433.000000, -1613.000000)"><g id="Introduction-to-Wallets" transform="translate(434.000000, 1614.000000)"><path id="Path" stroke="#A3ACB9" stroke-linecap="round" stroke-linejoin="round" stroke-width="2" d="M5.6667,3 L3,3 C1.5273,3 0.3333,4.194 0.3333,5.6667 C0.3333,7.1393 1.5273,8.3333 3,8.3333"/><path id="Path" fill="#A3ACB9" d="M17.9926,24 L0,24 L0,25.3559 C0,27.921 1.7459,30 3.9,30 L26,30 L25.3523,28.7953 C23.7458,25.8074 20.9718,24 17.9926,24 Z"/><polyline id="Path" stroke="#A3ACB9" stroke-linecap="round" stroke-linejoin="round" stroke-width="2" points="5.667 8.333 5.667 .333 24.333 .333 24.333 8.333"/><path id="Path" stroke="#A3ACB9" stroke-linecap="round" stroke-linejoin="round" stroke-width="2" d="M27,16.3327 L27,8.3333 L3,8.3333 C1.5273,8.3333 0.3333,7.1393 0.3333,5.6667 L0.3333,25.6667 C0.3333,27.876 2.124,29.6667 4.3333,29.6667 L27,29.6667 L27,21.6667"/><path id="Path" fill="#FFF" fill-rule="nonzero" d="M29.6667,21.6667 L23.6667,21.6667 C22.194,21.6667 21,20.4727 21,19 C21,17.5273 22.194,16.3333 23.6667,16.3333 L29.6667,16.3333 L29.6667,21.6667 Z"/></g></g></g></svg>