<svg xmlns="http://www.w3.org/2000/svg" xmlns:xlink="http://www.w3.org/1999/xlink" width="197" height="110" version="1.1" viewBox="0 0 197 110"><title>ad-block-icon@2x</title><desc>Created with Sketch.</desc><g id="Diem---Form" fill="none" fill-rule="evenodd" stroke="none" stroke-width="1"><g id="Diem---Form-v1" fill="#8C90A7" transform="translate(-622.000000, -302.000000)"><g id="Group" transform="translate(430.000000, 246.000000)"><g id="ad-block-icon" transform="translate(191.736316, 55.670348)"><polygon id="Fill-1" points="9.844 32.313 9.844 41.441 .716 41.441 .716 50.569 9.844 50.569 9.844 59.698 18.972 59.698 18.972 50.569 28.101 50.569 28.101 41.441 18.972 41.441 18.972 32.313"/><polygon id="Fill-2" points="178.716 14.058 178.716 23.186 169.588 23.186 169.588 32.314 178.716 32.314 178.716 41.442 187.844 41.442 187.844 32.314 196.972 32.314 196.972 23.186 187.844 23.186 187.844 14.058"/><polygon id="Fill-3" points="165.025 55.135 174.153 55.135 174.153 64.263 165.025 64.263"/><polygon id="Fill-4" points="41.794 9.493 50.923 9.493 50.923 18.622 41.794 18.622"/><polygon id="Fill-5" points="142.203 .365 151.331 .365 151.331 9.493 142.203 9.493"/><path id="Fill-6" d="M101.126842,0.365131579 C86.6013237,0.365131579 72.6693632,6.13888421 62.3995263,16.4081368 C52.1302737,26.6773895 46.3565211,40.6096421 46.3565211,55.1354526 C46.3565211,69.6612632 52.1302737,83.5929316 62.3995263,93.8627684 C72.6687789,104.132021 86.6010316,109.905774 101.126842,109.905774 C115.652653,109.905774 129.584321,104.132021 139.854158,93.8627684 C150.123411,83.5935158 155.897163,69.6612632 155.897163,55.1354526 C155.885742,40.6099342 150.100626,26.6893658 139.842766,16.4198211 C129.573513,6.16196053 115.652945,0.376815789 101.127134,0.365131579 L101.126842,0.365131579 Z M101.126842,100.776316 C89.0205395,100.776316 77.4160737,95.9726447 68.8579737,87.4034447 C60.2887737,78.8456368 55.4851026,67.2414632 55.4851026,55.1345763 C55.4851026,43.0276895 60.2887737,31.4238079 68.8579737,22.8657079 C77.4157816,14.2965079 89.0199553,9.49283684 101.126842,9.49283684 C113.233729,9.49283684 124.837611,14.2965079 133.395711,22.8657079 C141.964911,31.4235158 146.768582,43.0276895 146.768582,55.1345763 C146.75716,67.2408789 141.942126,78.8339526 133.384318,87.3917605 C124.826511,95.9495684 113.233729,100.764632 101.127134,100.776316 L101.126842,100.776316 Z"/><polygon id="Fill-7" points="28.101 73.391 37.229 73.391 37.229 82.52 28.101 82.52"/><path id="Fill-9" d="M101.126842,18.6217105 C95.8666105,18.6217105 90.6636316,19.7627321 85.8824526,21.9762474 C84.5360226,22.6038063 83.5661455,23.8589534 83.3037182,25.3307842 C83.0412908,26.7913105 83.5205187,28.2974053 84.5702574,29.3586237 L126.902152,71.6905184 C127.757933,72.5462992 128.921797,73.0255271 130.131376,73.0255271 C130.405224,73.0255271 130.667652,73.0027137 130.941501,72.9570576 C132.413448,72.6946303 133.657174,71.7247532 134.284645,70.3783232 C139.499308,59.0706363 138.586479,45.8917232 131.877055,35.4162442 C125.167631,24.9407653 113.574908,18.6087995 101.127134,18.6201762 L101.126842,18.6217105 Z M96.3117789,28.2056842 C97.8978229,27.9090221 99.5068263,27.7492697 101.126842,27.7492697 C116.245626,27.7606911 128.500318,40.0153539 128.511711,55.1341382 C128.511711,56.7544168 128.363379,58.3633618 128.078109,59.9605934 L96.3117789,28.2056842 Z"/><path id="Fill-10" d="M77.2910526,34.9854474 C76.3097542,33.9927568 74.9291187,33.5134997 73.5486,33.6846734 C72.1679353,33.8330045 70.9356308,34.6089237 70.1940632,35.78418 C61.1569105,50.1954853 63.2793474,68.9322853 75.3059053,80.9582589 C87.3324632,92.9848168 106.067511,95.1072537 120.479984,86.0701011 C121.655241,85.3284166 122.43116,84.0961121 122.590912,82.7155642 C122.739243,81.3348995 122.260015,79.9542639 121.278717,78.9731116 L77.2910526,34.9854474 Z M101.127426,82.5197368 C86.0086421,82.5083155 73.75395,70.2536526 73.7425579,55.1348684 C73.7425579,51.9970737 74.2902553,48.8934553 75.3514153,45.9496184 L110.313494,80.9116974 C107.369657,81.9728574 104.266039,82.5205547 101.128244,82.5205547 L101.127426,82.5197368 Z"/></g></g></g></g></svg>