<svg xmlns="http://www.w3.org/2000/svg" width="50" height="50" fill="none" viewBox="0 0 50 50"><path stroke="#A3ACB9" stroke-linecap="round" stroke-linejoin="round" stroke-miterlimit="10" stroke-width="2" d="M16.0069 12.2507H12.8247C11.266 12.2507 10.0038 13.5129 10.0038 15.0717V17.8926"/><path stroke="#fff" stroke-linecap="round" stroke-linejoin="round" stroke-miterlimit="10" stroke-width="2" d="M14.1934 17.4022C14.4786 13.2658 17.923 10 22.1316 10C26.3365 10 29.7771 13.262 30.0698 17.3908"/><path stroke="#fff" stroke-linecap="round" stroke-linejoin="round" stroke-miterlimit="10" stroke-width="2" d="M25.5305 10.2357C26.1464 10.0837 26.7889 10.0038 27.4542 10.0038C31.7274 10.0038 35.2137 13.3722 35.4038 17.5999"/><path fill="#4C5062" d="M27.3363 33.9553C23.8577 33.9553 21.0443 33.9553 21.0443 33.9553C21.0443 33.9553 14.7181 33.9553 10 33.9553V37.1944L10.5285 38.5175L12.1822 39.7683H21.0405H36.1604C36.1604 39.7683 34.3659 33.9553 27.3363 33.9553Z"/><path stroke="#A3ACB9" stroke-linecap="round" stroke-linejoin="round" stroke-miterlimit="10" stroke-width="2" d="M14.2694 39.7683H37.2781V17.8926H10.0038V35.5065C10.0038 37.8598 11.9123 39.7683 14.2694 39.7683Z"/><path stroke="#fff" stroke-linecap="round" stroke-linejoin="round" stroke-miterlimit="10" stroke-width="2" d="M18.3361 23.6473L16 25.9834L18.5739 28.561"/><path stroke="#fff" stroke-linecap="round" stroke-linejoin="round" stroke-miterlimit="10" stroke-width="2" d="M28.6639 23.6473L31 25.9834L28.4225 28.561"/><path stroke="#fff" stroke-linecap="round" stroke-linejoin="round" stroke-miterlimit="10" stroke-width="2" d="M25.3444 22.4793L21.7692 30.5207"/></svg>