<svg xmlns="http://www.w3.org/2000/svg" width="50" height="50" fill="none" viewBox="0 0 50 50"><path fill="#e5e5e5" fill-opacity=".25" d="m18 35h14c6.5 0 8 5 8 5h-30s1.5-5 8-5z"/><path stroke="#a3acb9" stroke-linecap="round" stroke-linejoin="round" stroke-miterlimit="10" stroke-width="2" d="m15.0833 40.5833h-5.66664v-9.2083h4.25004"/><path stroke="#a3acb9" stroke-linecap="round" stroke-linejoin="round" stroke-miterlimit="10" stroke-width="2" d="m34.9167 40.5833h5.6666v-9.2083h-4.25"/><path stroke="#fff" stroke-linecap="round" stroke-linejoin="round" stroke-miterlimit="10" stroke-width="2" d="m25.0267 16.0833v-7.0833"/><path fill="#fff" d="m25.0267 13.25h4.25v-2.8333h-4.25"/><path stroke="#fff" stroke-linecap="round" stroke-linejoin="round" stroke-miterlimit="10" stroke-width="2" d="m25.0267 13.25h4.25v-2.8333h-4.25"/><path fill="#fff" d="m27.125 40.5833v-5.6666h-4.25v5.6666"/><g stroke-linecap="round" stroke-linejoin="round" stroke-miterlimit="10" stroke-width="2"><path stroke="#a3acb9" d="m27.125 40.5833v-5.6666h-4.25v5.6666"/><path stroke="#eeeff0" d="m22.875 31.375h4.25"/><path stroke="#eeeff0" d="m17.9167 40.5833v-12.75"/><path stroke="#eeeff0" d="m32.0833 40.5833v-12.75"/><path stroke="#a3acb9" d="m13.6667 23.5833h22.6666"/><path stroke="#a3acb9" d="m36.3333 23.5833v17h-22.6666v-17l11.3333-7.0833z"/><path stroke="#a3acb9" d="m13.6667 27.8333h22.6666"/></g></svg>