<svg xmlns="http://www.w3.org/2000/svg" width="50" height="50" fill="none" viewBox="0 0 50 50"><path stroke="#402B91" stroke-linecap="round" stroke-linejoin="round" stroke-miterlimit="10" stroke-width="2" d="M18.4401 17.1202L10.6558 20.4389L25 26.5574L39.341 20.4389L31.56 17.1202"/><path stroke="#402B91" stroke-linecap="round" stroke-linejoin="round" stroke-miterlimit="10" stroke-width="2" d="M10.6558 20.4389L6 25.4426L20.805 31.7287L25 26.5574"/><path stroke="#402B91" stroke-linecap="round" stroke-linejoin="round" stroke-miterlimit="10" stroke-width="2" d="M10.6558 20.4389L6 15.4351L18.8235 9.98999"/><path stroke="#402B91" stroke-linecap="round" stroke-linejoin="round" stroke-miterlimit="10" stroke-width="2" d="M39.341 20.4389L44 15.4351L30.8833 9.86755"/><path stroke="#402B91" stroke-linecap="round" stroke-linejoin="round" stroke-miterlimit="10" stroke-width="2" d="M39.341 20.4389L44 25.4426L29.195 31.7287L25 26.5574"/><path fill="#92B5D8" d="M20.6987 35.885C19.1779 35.2116 17.9503 34.6703 17.9503 34.6703C17.9503 34.6703 16.7227 34.1258 15.202 33.4556C12.1314 32.0992 11.1971 35.5467 11.1971 35.5467L17.8021 38.4658L24.4072 41.3849C24.4007 41.3817 23.7692 37.2415 20.6987 35.885Z"/><path stroke="#402B91" stroke-linecap="round" stroke-linejoin="round" stroke-miterlimit="10" stroke-width="2" d="M10.6558 27.4209V35.9366L25 42.1711V26.5574"/><path stroke="#402B91" stroke-linecap="round" stroke-linejoin="round" stroke-miterlimit="10" stroke-width="2" d="M39.341 27.4209V35.9366L25 42.1711V26.5574"/><path stroke="#94D1BE" stroke-linecap="round" stroke-linejoin="round" stroke-miterlimit="10" stroke-width="2" d="M25 10.1189V17.9322"/><path stroke="#94D1BE" stroke-linecap="round" stroke-linejoin="round" stroke-miterlimit="10" stroke-width="2" d="M22.4933 15.4029L25.0225 17.9322L27.5067 15.448"/><path stroke="#94D1BE" stroke-linecap="round" stroke-linejoin="round" stroke-miterlimit="10" stroke-width="2" d="M25 21.37C28.9682 21.37 32.185 18.1532 32.185 14.185C32.185 10.2168 28.9682 7 25 7C21.0318 7 17.815 10.2168 17.815 14.185C17.815 18.1532 21.0318 21.37 25 21.37Z"/></svg>