<svg xmlns="http://www.w3.org/2000/svg" xmlns:xlink="http://www.w3.org/1999/xlink" width="23" height="24" version="1.1" viewBox="0 0 23 24"><title>Icon</title><g id="---Developers" fill="none" fill-rule="evenodd" stroke="none" stroke-width="1"><g id="Documentation---Wallet-/-App-Overview" transform="translate(-34.000000, -587.000000)"><g id="Left-Rail" transform="translate(0.000000, 140.000000)"><g id="Left-TOC" transform="translate(29.000000, 90.000000)"><g id="Contribute" transform="translate(0.500000, 354.000000)"><g id="Icon/Contribute" transform="translate(0.500000, 0.000000)"><rect id="Rectangle" width="17" height="1" x="5" y="9.5" fill="#C4C4C4" rx=".5"/><path id="Rectangle" fill="#C4C4C4" d="M2.42,11.58 L17.58,11.58 C17.8119596,11.58 18,11.7680404 18,12 C18,12.2319596 17.8119596,12.42 17.58,12.42 L2.42,12.42 C2.18804041,12.42 2,12.2319596 2,12 C2,11.7680404 2.18804041,11.58 2.42,11.58 Z" transform="translate(10.000000, 12.000000) rotate(-90.000000) translate(-10.000000, -12.000000)"/><rect id="Rectangle" width="11" height="11" x="5" y="4.5" fill="#FFF" stroke="#727272" stroke-width="1.75" rx="1.765"/><rect id="Rectangle" width="11" height="11" x="15" y="14.5" fill="#FFF" stroke="#727272" stroke-width="1.75" opacity=".8" rx="1.765"/></g></g></g></g></g></g></svg>