<svg xmlns="http://www.w3.org/2000/svg" xmlns:xlink="http://www.w3.org/1999/xlink" width="430" height="360" version="1.1" viewBox="0 0 430 360"><title>D7F1CDE5-76B6-47B3-B394-D962F26E8175@2x</title><desc>Created with sketchtool.</desc><g id="Diem---Form" fill="none" fill-rule="evenodd" stroke="none" stroke-width="1" opacity=".1"><g id="Diem---Form-Success" transform="translate(-874.000000, 0.000000)"><g id="BG" transform="translate(-107.000000, -166.000000)"><g id="Form-Icon" transform="translate(1244.500000, 265.500000) rotate(-20.000000) translate(-1244.500000, -265.500000) translate(1030.000000, 62.000000)"><path id="Path" fill="#16102C" d="M318.933489,400.216667 C318.933489,403.952791 315.758534,407 311.865783,407 L15.022104,407 C11.1293526,407 7.95439739,403.952791 7.95439739,400.216667 L7.95439739,6.78333333 C7.95439739,3.047209 11.1293526,0 15.022104,0 L311.865783,0 C315.758534,0 318.933489,3.047209 318.933489,6.78333333 L318.933489,400.216667 Z"/><rect id="Rectangle" width="3.977" height="335.02" x="0" y="23.863" fill="#706BB0" rx="1.989"/><polygon id="Path" fill="#42318C" points="50.361 88.183 276.527 88.183 276.527 47.483 50.361 47.483"/><polygon id="Path" fill="#706BAF" points="50.361 142.45 276.527 142.45 276.527 101.75 50.361 101.75"/><polygon id="Path" fill="#706BAF" points="50.361 196.717 276.527 196.717 276.527 156.017 50.361 156.017"/><polygon id="Path" fill="#706BAF" points="50.361 250.983 219.986 250.983 219.986 210.283 50.361 210.283"/><polygon id="Path" fill="#92B4D8" points="314.096 235.288 292.893 214.938 222.216 282.772 243.419 303.122"/><polygon id="Path" fill="#92B4D8" points="299.961 208.155 321.164 228.505 420.112 133.538 398.909 113.188"/><path id="Path" fill="#92B4D8" d="M209.51527,311.200578 C208.852672,313.69135 211.199363,315.943621 213.794554,315.307683 L236.350433,309.90218 L215.147313,289.55218 L209.51527,311.200578 Z"/></g></g></g></g></svg>