<svg xmlns="http://www.w3.org/2000/svg" xmlns:xlink="http://www.w3.org/1999/xlink" width="26" height="27" version="1.1" viewBox="0 0 26 27"><title>4A138A2F-BA49-46AD-A3E5-903CDC317616</title><g id="---Developers" fill="none" fill-rule="evenodd" stroke="none" stroke-width="1"><g id="Icons" transform="translate(-143.000000, -1136.000000)"><g id="Home" transform="translate(144.000000, 1137.000000)"><g id="Icon/Home"><g id="Home" transform="translate(0.000000, 0.500000)"><line id="Path-23" x1="2.613" x2="8.564" y1="21.791" y2="21.791" stroke="#A3ACB9"/><line id="Path-23" x1="15.188" x2="20.697" y1="21.791" y2="21.791" stroke="#A3ACB9"/><polygon id="Path-19" stroke="#FFF" points="0 9.576 0 13.715 11.827 4.473 23.596 13.715 23.596 9.576 11.827 0"/><polyline id="Path-22" stroke="#FFF" points="2.613 12.046 2.613 24.174 20.767 24.174 20.767 11.514"/><path id="Path-25" stroke="#979797"/></g></g><path id="Path-26" fill="#FFF" d="M7.13351028,7.9896241 C9.65010716,10.506221 13.7303169,10.506221 16.2469138,7.9896241 L16.2469138,7.9896241 L16.2469138,7.9896241 L11.8544993,4.54632584 L7.13351028,7.9896241 Z"/><polyline id="Path-24" stroke="#FFF" points="8.335 24.207 8.335 15.207 15.335 15.207 15.335 24.207"/></g></g></g></svg>