<svg xmlns="http://www.w3.org/2000/svg" xmlns:xlink="http://www.w3.org/1999/xlink" width="26" height="26" version="1.1" viewBox="0 0 26 26"><title>Icon/Home</title><g id="---Developers" fill="none" fill-rule="evenodd" stroke="none" stroke-width="1"><g id="Documentation---Home-Page" transform="translate(-32.000000, -228.000000)"><g id="Group"><g id="Left-Rail" transform="translate(0.000000, 140.000000)"><g id="Left-TOC" transform="translate(30.000000, 84.000000)"><g id="Home"><g id="Icon/Home" transform="translate(0.000000, 2.000000)"><g id="Home" transform="translate(3.000000, 2.500000)"><path id="Path-26" fill="#92B1DE" d="M7.13351028,7.4896241 C9.65010716,10.006221 13.7303169,10.006221 16.2469138,7.4896241 L16.2469138,7.4896241 L16.2469138,7.4896241 L11.8544993,4.04632584 L7.13351028,7.4896241 Z"/><line id="Path-23" x1="2.613" x2="8.564" y1="21.791" y2="21.791" stroke="#91D0BC"/><line id="Path-23" x1="15.188" x2="20.697" y1="21.791" y2="21.791" stroke="#91D0BC"/><polygon id="Path-19" stroke="#473490" points="0 9.576 0 13.715 11.827 4.473 23.596 13.715 23.596 9.576 11.827 0"/><polyline id="Path-24" stroke="#7167B1" points="8.335 24.174 8.335 14.707 15.335 14.707 15.335 24.174"/><polyline id="Path-22" stroke="#47378E" points="2.613 12.046 2.613 24.174 20.767 24.174 20.767 11.514"/><path id="Path-25" stroke="#979797"/></g></g></g></g></g></g></g></g></svg>