<svg xmlns="http://www.w3.org/2000/svg" width="50" height="50" fill="none" viewBox="0 0 50 50"><path fill="#92B5D8" d="M30.436 34.6635C27.4306 34.6635 25.0019 34.6635 25.0019 34.6635C25.0019 34.6635 22.5731 34.6635 19.5677 34.6635C13.4958 34.6635 11.9453 37.7911 11.9453 37.7911H25.0019H38.0584C38.0584 37.7911 36.508 34.6635 30.436 34.6635Z"/><path stroke="#402B91" stroke-linecap="round" stroke-linejoin="round" stroke-miterlimit="10" stroke-width="2" d="M38.0583 31.513V36.6187C38.0583 37.413 37.4091 38.0622 36.6148 38.0622H13.3849C12.5906 38.0622 11.9414 37.413 11.9414 36.6187V13.385C11.9414 12.5907 12.5906 11.9415 13.3849 11.9415H36.6148C37.4091 11.9415 38.0583 12.5907 38.0583 13.385V25.0019"/><path stroke="#402B91" stroke-linecap="round" stroke-linejoin="round" stroke-miterlimit="10" stroke-width="2.035" d="M25.0017 11.9416V7"/><path stroke="#402B91" stroke-linecap="round" stroke-linejoin="round" stroke-miterlimit="10" stroke-width="2.035" d="M18.697 11.9416V7"/><path stroke="#402B91" stroke-linecap="round" stroke-linejoin="round" stroke-miterlimit="10" stroke-width="2.035" d="M31.303 11.9416V7"/><path stroke="#402B91" stroke-linecap="round" stroke-linejoin="round" stroke-miterlimit="10" stroke-width="2" d="M38.0586 25.0019H43.0001"/><path stroke="#402B91" stroke-linecap="round" stroke-linejoin="round" stroke-miterlimit="10" stroke-width="2" d="M38.0586 18.697H43.0001"/><path stroke="#402B91" stroke-linecap="round" stroke-linejoin="round" stroke-miterlimit="10" stroke-width="2" d="M38.0586 31.303H43.0001"/><path stroke="#402B91" stroke-linecap="round" stroke-linejoin="round" stroke-miterlimit="10" stroke-width="2" d="M25.0017 11.9416V7"/><path stroke="#402B91" stroke-linecap="round" stroke-linejoin="round" stroke-miterlimit="10" stroke-width="2" d="M31.303 11.9416V7"/><path stroke="#402B91" stroke-linecap="round" stroke-linejoin="round" stroke-miterlimit="10" stroke-width="2" d="M18.697 11.9416V7"/><path stroke="#402B91" stroke-linecap="round" stroke-linejoin="round" stroke-miterlimit="10" stroke-width="2.035" d="M25.0017 38.0585V43"/><path stroke="#402B91" stroke-linecap="round" stroke-linejoin="round" stroke-miterlimit="10" stroke-width="2.035" d="M18.697 38.0585V43"/><path stroke="#402B91" stroke-linecap="round" stroke-linejoin="round" stroke-miterlimit="10" stroke-width="2.035" d="M31.303 38.0585V43"/><path stroke="#402B91" stroke-linecap="round" stroke-linejoin="round" stroke-miterlimit="10" stroke-width="2" d="M25.0017 38.0585V43"/><path stroke="#402B91" stroke-linecap="round" stroke-linejoin="round" stroke-miterlimit="10" stroke-width="2" d="M31.303 38.0585V43"/><path stroke="#402B91" stroke-linecap="round" stroke-linejoin="round" stroke-miterlimit="10" stroke-width="2" d="M18.697 38.0585V43"/><path stroke="#402B91" stroke-linecap="round" stroke-linejoin="round" stroke-miterlimit="10" stroke-width="2" d="M11.9416 25.0019H7"/><path stroke="#402B91" stroke-linecap="round" stroke-linejoin="round" stroke-miterlimit="10" stroke-width="2" d="M11.9416 18.697H7"/><path stroke="#402B91" stroke-linecap="round" stroke-linejoin="round" stroke-miterlimit="10" stroke-width="2" d="M11.9416 31.303H7"/><path stroke="#736DB1" stroke-linecap="round" stroke-linejoin="round" stroke-miterlimit="10" stroke-width="2" d="M18.9033 18.8727H31.0968"/><path stroke="#736DB1" stroke-linecap="round" stroke-linejoin="round" stroke-miterlimit="10" stroke-width="2" d="M18.9033 31.1273H31.0968"/><path stroke="#94D1BE" stroke-linecap="round" stroke-linejoin="round" stroke-miterlimit="10" stroke-width="2" d="M20.8318 25.0019H29.2294"/></svg>