<svg xmlns="http://www.w3.org/2000/svg" xmlns:xlink="http://www.w3.org/1999/xlink" width="50" height="50" version="1.1" viewBox="0 0 50 50"><title>Tutorial Icons/Get Started/Run a Local Network Darkmode</title><g id="Tutorial-Icons/Get-Started/Run-a-Local-Network-Darkmode" fill="none" fill-rule="evenodd" stroke="none" stroke-width="1"><g id="Group-13" stroke="#A3ACB9" stroke-width="2" transform="translate(8.080196, 6.576213)"><g id="Group-8-Copy"><ellipse id="Oval" cx="16.92" cy="18.39" rx="16.229" ry="16.036"/><ellipse id="Oval" cx="16.92" cy="2.013" fill="#EEEFF0" rx="1.727" ry="1.706"/><ellipse id="Oval" cx="16.92" cy="34.766" fill="#EEEFF0" rx="1.727" ry="1.706"/><ellipse id="Oval" cx="31.254" cy="9.994" fill="#EEEFF0" rx="1.823" ry="1.834" transform="translate(31.254241, 9.994385) rotate(-300.000000) translate(-31.254241, -9.994385)"/><ellipse id="Oval" cx="2.585" cy="26.349" fill="#EEEFF0" rx="1.823" ry="1.834" transform="translate(2.585367, 26.348833) rotate(-300.000000) translate(-2.585367, -26.348833)"/><ellipse id="Oval" cx="31.254" cy="26.349" fill="#EEEFF0" rx="1.823" ry="1.834" transform="translate(31.254241, 26.348833) rotate(-240.000000) translate(-31.254241, -26.348833)"/><ellipse id="Oval" cx="2.585" cy="9.994" fill="#EEEFF0" rx="1.823" ry="1.834" transform="translate(2.585367, 9.994385) rotate(-240.000000) translate(-2.585367, -9.994385)"/></g></g><g id="pin-3" stroke="#EEEFF0" stroke-linecap="round" stroke-linejoin="round" stroke-width="2" transform="translate(18.500000, 16.500000)"><path id="Path" d="M12.6511628,6.3255814 C12.6511628,10.6744186 6.3255814,17 6.3255814,17 C6.3255814,17 0,10.6744186 0,6.3255814 C0,2.32267442 3.26874419,0 6.3255814,0 C9.3824186,0 12.6511628,2.32267442 12.6511628,6.3255814 Z"/><circle id="Oval" cx="6.326" cy="6.326" r="1.977"/></g></g></svg>