<svg xmlns="http://www.w3.org/2000/svg" width="50" height="50" fill="none" viewBox="0 0 50 50"><path fill="#e5e5e5" fill-opacity=".25" d="m36.5 19h-23c-4 0-4.5 3-4.5 3h32s-.5-3-4.5-3z"/><g stroke-linecap="round" stroke-linejoin="round" stroke-miterlimit="10" stroke-width="2"><path stroke="#a3acb9" d="m41.5 10h-33v12h33z"/><path fill="#a3acb9" stroke="#fff" d="m41.5267 27.5833h-32.99997v12h32.99997z"/><path stroke="#a3acb9" d="m16 16h-3"/><path stroke="#fff" d="m16.0267 33.5833h-3"/><path stroke="#a3acb9" d="m23.5 16h-3"/><path stroke="#fff" d="m23.5267 33.5833h-3"/><path stroke="#a3acb9" d="m35.5 17.5c.8284 0 1.5-.6716 1.5-1.5s-.6716-1.5-1.5-1.5-1.5.6716-1.5 1.5.6716 1.5 1.5 1.5z"/><path fill="#a3acb9" stroke="#fff" d="m35.5267 35.0833c.8285 0 1.5-.6715 1.5-1.5 0-.8284-.6715-1.5-1.5-1.5-.8284 0-1.5.6716-1.5 1.5 0 .8285.6716 1.5 1.5 1.5z"/><path stroke="#a3acb9" d="m13 22v3"/><path stroke="#a3acb9" d="m37 22v3"/></g></svg>