<svg xmlns="http://www.w3.org/2000/svg" width="50" height="50" fill="none" viewBox="0 0 50 50"><path fill="#92B5D8" d="M30.6628 39.4655C27.5763 39.4655 25.0819 39.4655 25.0819 39.4655C25.0819 39.4655 22.5874 39.4655 19.501 39.4655C13.2682 39.4655 11.675 42.7149 11.675 42.7149H25.0819H38.4887C38.4887 42.7149 36.8955 39.4655 30.6628 39.4655Z"/><path stroke="#402B91" stroke-linecap="round" stroke-linejoin="round" stroke-miterlimit="10" stroke-width="2" d="M32.5287 11.2583H36.7227C38.236 11.2583 39.4633 12.4855 39.4633 13.9988V40.3036C39.4633 41.8169 38.236 43.0441 36.7227 43.0441H13.7406C12.2273 43.0441 11 41.8169 11 40.3036V13.9988C11 12.4855 12.2273 11.2583 13.7406 11.2583H17.9279"/><path stroke="#402B91" stroke-linecap="round" stroke-linejoin="round" stroke-miterlimit="10" stroke-width="2" d="M28.2383 8.38802C27.9223 7.02106 26.6984 6 25.2317 6C23.7683 6 22.5443 7.02106 22.225 8.38802H18.2173V14.1319H32.2494V8.38802H28.2383Z"/><path stroke="#94D1BE" stroke-linecap="round" stroke-linejoin="round" stroke-miterlimit="10" stroke-width="2" d="M15.4635 19.7228L17.4125 21.6751L21.0444 18.0432"/><path stroke="#736DB1" stroke-linecap="round" stroke-linejoin="round" stroke-miterlimit="10" stroke-width="2" d="M25.082 20.3746H34.8336"/><path stroke="#94D1BE" stroke-linecap="round" stroke-linejoin="round" stroke-miterlimit="10" stroke-width="2" d="M15.4635 27.3724L17.4125 29.3247L21.0444 25.6928"/><path stroke="#736DB1" stroke-linecap="round" stroke-linejoin="round" stroke-miterlimit="10" stroke-width="2" d="M25.082 28.0243H34.8336"/><path stroke="#94D1BE" stroke-linecap="round" stroke-linejoin="round" stroke-miterlimit="10" stroke-width="2" d="M15.4635 35.022L17.4125 36.9743L21.0444 33.3424"/><path stroke="#736DB1" stroke-linecap="round" stroke-linejoin="round" stroke-miterlimit="10" stroke-width="2" d="M25.082 35.6739H34.8336"/></svg>